<?xml version="1.0" encoding="UTF-8" standalone="no"?>
<svg width="67px" height="44px" viewBox="0 0 67 44" version="1.1" xmlns="http://www.w3.org/2000/svg" xmlns:xlink="http://www.w3.org/1999/xlink">
    <!-- Generator: Sketch 41 (35326) - http://www.bohemiancoding.com/sketch -->
    <title>Logo</title>
    <desc>Created with Sketch.</desc>
    <defs></defs>
    <g id="Regular-version" stroke="none" stroke-width="1" fill="none" fill-rule="evenodd">
        <g id="Artboard" transform="translate(-26.000000, -15.000000)" fill="#FFFFFF">
            <g id="Logo" transform="translate(26.000000, 15.000000)">
                <path d="M9.47363281,23 L8.99023438,20.9052734 L8.78515625,20.9052734 C8.42382632,21.6474646 7.90869475,22.2309549 7.23974609,22.6557617 C6.57079744,23.0805685 5.80664492,23.2929688 4.94726562,23.2929688 C3.48241455,23.2929688 2.3740272,22.7949269 1.62207031,21.7988281 C0.870113428,20.8027294 0.494140625,19.3134865 0.494140625,17.3310547 L0.494140625,6.68164062 L4.43457031,6.68164062 L4.43457031,16.3935547 C4.43457031,17.5849669 4.57617046,18.4833954 4.859375,19.0888672 C5.14257954,19.694339 5.60155933,19.9970703 6.23632812,19.9970703 C7.07617607,19.9970703 7.68896292,19.5771526 8.07470703,18.7373047 C8.46045115,17.8974567 8.65332031,16.486338 8.65332031,14.5039062 L8.65332031,6.68164062 L12.59375,6.68164062 L12.59375,23 L9.47363281,23 Z M22.8183594,6.37402344 C23.2968774,6.37402344 23.7656227,6.44726489 24.2246094,6.59375 L23.7705078,10.3730469 C23.4970689,10.2753901 23.1406272,10.2265625 22.7011719,10.2265625 C21.7539015,10.2265625 21.0263697,10.6000939 20.5185547,11.347168 C20.0107396,12.094242 19.7568359,13.1806569 19.7568359,14.6064453 L19.7568359,23 L15.8603516,23 L15.8603516,6.68164062 L19.0683594,6.68164062 L19.5078125,9.23046875 L19.6396484,9.23046875 C20.0693381,8.205073 20.5380834,7.47265845 21.0458984,7.03320312 C21.5537135,6.5937478 22.1445279,6.37402344 22.8183594,6.37402344 L22.8183594,6.37402344 Z M33.3359375,6.37402344 C34.8203199,6.37402344 35.9873004,7.11132075 36.8369141,8.5859375 C37.6865277,10.0605542 38.1113281,12.1357288 38.1113281,14.8115234 C38.1113281,17.5166151 37.6840863,19.6064379 36.8295898,21.0810547 C35.9750934,22.5556714 34.7910232,23.2929688 33.2773438,23.2929688 C32.5449182,23.2929688 31.897952,23.1342789 31.3364258,22.8168945 C30.7748995,22.4995101 30.2451197,21.9404337 29.7470703,21.1396484 L29.4980469,21.1396484 L28.8388672,23 L25.9677734,23 L25.9677734,0.20703125 L29.8642578,0.20703125 L29.8642578,5.5390625 C29.8642578,5.763673 29.859375,5.99804565 29.8496094,6.2421875 C29.8398437,6.48632935 29.7763678,7.34081299 29.6591797,8.80566406 L29.8642578,8.80566406 C30.3427758,7.90722207 30.8603488,7.27734556 31.4169922,6.91601562 C31.9736356,6.55468569 32.6132776,6.37402344 33.3359375,6.37402344 L33.3359375,6.37402344 Z M31.9882812,9.68457031 C31.24609,9.68457031 30.7114274,10.0312465 30.3842773,10.7246094 C30.0571273,11.4179722 29.8837892,12.6386631 29.8642578,14.3867188 L29.8642578,14.7822266 C29.8642578,16.6767673 30.0327132,18.0097618 30.3696289,18.78125 C30.7065447,19.5527382 31.2558556,19.9384766 32.0175781,19.9384766 C33.4238352,19.9384766 34.1269531,18.2099782 34.1269531,14.7529297 C34.1269531,11.3740065 33.4140696,9.68457031 31.9882812,9.68457031 L31.9882812,9.68457031 Z M48.8486328,23 L48.0722656,20.7734375 L47.984375,20.7734375 C47.4082002,21.7304735 46.8125031,22.3896466 46.1972656,22.7509766 C45.5820282,23.1123065 44.8056688,23.2929688 43.8681641,23.2929688 C42.6669862,23.2929688 41.7221714,22.8437545 41.0336914,21.9453125 C40.3452114,21.0468705 40.0009766,19.796883 40.0009766,18.1953125 C40.0009766,16.4765539 40.4721633,15.1997112 41.4145508,14.3647461 C42.3569383,13.529781 43.7656156,13.0683598 45.640625,12.9804688 L47.8085938,12.8925781 L47.8085938,11.7207031 C47.8085938,10.197258 47.1494207,9.43554688 45.8310547,9.43554688 C44.8544873,9.43554688 43.7314517,9.81640244 42.4619141,10.578125 L41.1142578,7.8828125 C42.7353597,6.85741675 44.4980374,6.34472656 46.4023438,6.34472656 C48.130868,6.34472656 49.4467728,6.84032708 50.3500977,7.83154297 C51.2534225,8.82275886 51.7050781,10.2265534 51.7050781,12.0429688 L51.7050781,23 L48.8486328,23 Z M45.4648438,20.2460938 C46.1777379,20.2460938 46.7465799,19.9262727 47.1713867,19.2866211 C47.5961935,18.6469695 47.8085938,17.7949272 47.8085938,16.7304688 L47.8085938,15.3535156 L46.6074219,15.4121094 C45.7187456,15.4609377 45.0668966,15.7148415 44.6518555,16.1738281 C44.2368143,16.6328148 44.0292969,17.3164017 44.0292969,18.2246094 C44.0292969,19.5722724 44.5078077,20.2460938 45.4648438,20.2460938 L45.4648438,20.2460938 Z M62.984375,23 L62.984375,13.2734375 C62.984375,12.091791 62.8427749,11.1982452 62.5595703,10.5927734 C62.2763658,9.98730166 61.817386,9.68457031 61.1826172,9.68457031 C60.3427692,9.68457031 59.727541,10.1020466 59.3369141,10.9370117 C58.9462871,11.7719768 58.7509766,13.1806542 58.7509766,15.1630859 L58.7509766,23 L54.8544922,23 L54.8544922,6.68164062 L57.9453125,6.68164062 L58.4140625,8.77636719 L58.6630859,8.77636719 C59.0146502,8.0244103 59.5175749,7.43603728 60.171875,7.01123047 C60.8261751,6.58642366 61.592769,6.37402344 62.4716797,6.37402344 C63.9560621,6.37402344 65.0668908,6.88183086 65.8041992,7.89746094 C66.5415076,8.91309102 66.9101562,10.3974512 66.9101562,12.3505859 L66.9101562,23 L62.984375,23 Z" id="urban"></path>
                <path d="M8.32421875,39.9970703 C8.87109648,39.9970703 9.46191089,39.8603529 10.0966797,39.5869141 L10.0966797,42.6337891 C9.46191089,43.0732444 8.50977197,43.2929688 7.24023438,43.2929688 C5.82421167,43.2929688 4.77441748,42.8706097 4.09082031,42.0258789 C3.40722314,41.1811481 3.06542969,39.9140709 3.06542969,38.2246094 L3.06542969,29.7724609 L1.48339844,29.7724609 L1.48339844,28.0292969 L3.51953125,26.6230469 L4.515625,23.1660156 L7.00585938,23.1660156 L7.00585938,26.6816406 L9.96484375,26.6816406 L9.96484375,29.7724609 L7.00585938,29.7724609 L7.00585938,38.3564453 C7.00585938,39.4502008 7.44530811,39.9970703 8.32421875,39.9970703 L8.32421875,39.9970703 Z M20.3798828,43 L19.6035156,40.7734375 L19.515625,40.7734375 C18.9394502,41.7304735 18.3437531,42.3896466 17.7285156,42.7509766 C17.1132782,43.1123065 16.3369187,43.2929688 15.3994141,43.2929688 C14.1982362,43.2929688 13.2534214,42.8437545 12.5649414,41.9453125 C11.8764614,41.0468705 11.5322266,39.796883 11.5322266,38.1953125 C11.5322266,36.4765539 12.0034133,35.1997112 12.9458008,34.3647461 C13.8881883,33.529781 15.2968656,33.0683598 17.171875,32.9804688 L19.3398438,32.8925781 L19.3398438,31.7207031 C19.3398438,30.197258 18.6806707,29.4355469 17.3623047,29.4355469 C16.3857373,29.4355469 15.2627017,29.8164024 13.9931641,30.578125 L12.6455078,27.8828125 C14.2666097,26.8574167 16.0292874,26.3447266 17.9335938,26.3447266 C19.662118,26.3447266 20.9780228,26.8403271 21.8813477,27.831543 C22.7846725,28.8227589 23.2363281,30.2265534 23.2363281,32.0429688 L23.2363281,43 L20.3798828,43 Z M16.9960938,40.2460938 C17.7089879,40.2460938 18.2778299,39.9262727 18.7026367,39.2866211 C19.1274435,38.6469695 19.3398438,37.7949272 19.3398438,36.7304688 L19.3398438,35.3535156 L18.1386719,35.4121094 C17.2499956,35.4609377 16.5981466,35.7148415 16.1831055,36.1738281 C15.7680643,36.6328148 15.5605469,37.3164017 15.5605469,38.2246094 C15.5605469,39.5722724 16.0390577,40.2460938 16.9960938,40.2460938 L16.9960938,40.2460938 Z M33.3681641,26.3740234 C34.8525465,26.3740234 36.019527,27.1113208 36.8691406,28.5859375 C37.7187542,30.0605542 38.1435547,32.1357288 38.1435547,34.8115234 C38.1435547,37.5166151 37.7163129,39.6064379 36.8618164,41.0810547 C36.0073199,42.5556714 34.8232498,43.2929688 33.3095703,43.2929688 C32.5771448,43.2929688 31.9301786,43.1342789 31.3686523,42.8168945 C30.8071261,42.4995101 30.2773462,41.9404337 29.7792969,41.1396484 L29.5302734,41.1396484 L28.8710938,43 L26,43 L26,20.2070312 L29.8964844,20.2070312 L29.8964844,25.5390625 C29.8964844,25.763673 29.8916016,25.9980457 29.8818359,26.2421875 C29.8720703,26.4863293 29.8085943,27.340813 29.6914062,28.8056641 L29.8964844,28.8056641 C30.3750024,27.9072221 30.8925753,27.2773456 31.4492188,26.9160156 C32.0058622,26.5546857 32.6455042,26.3740234 33.3681641,26.3740234 L33.3681641,26.3740234 Z M32.40625,29.6845703 C31.6640588,29.6845703 31.1293962,30.0312465 30.8022461,30.7246094 C30.475096,31.4179722 30.3017579,32.6386631 30.2822266,34.3867188 L30.2822266,34.7822266 C30.2822266,36.6767673 30.4506819,38.0097618 30.7875977,38.78125 C31.1245134,39.5527382 31.6738243,39.9384766 32.4355469,39.9384766 C33.8418039,39.9384766 34.5449219,38.2099782 34.5449219,34.7529297 C34.5449219,31.3740065 33.8320384,29.6845703 32.40625,29.6845703 L32.40625,29.6845703 Z M45.1650391,43 L41.2685547,43 L41.2685547,20.2070312 L45.1650391,20.2070312 L45.1650391,43 Z M54.4521484,43.2929688 C52.4111226,43.2929688 50.802252,42.5678783 49.6254883,41.1176758 C48.4487246,39.6674732 47.8603516,37.6142711 47.8603516,34.9580078 C47.8603516,32.2626818 48.3925728,30.1582107 49.4570312,28.6445312 C50.5214897,27.1308518 52.0058499,26.3740234 53.9101562,26.3740234 C55.6875089,26.3740234 57.0888621,27.0209896 58.1142578,28.3149414 C59.1396536,29.6088932 59.6523438,31.4228399 59.6523438,33.7568359 L59.6523438,35.8369141 L51.8154297,35.8369141 C51.8447267,37.2919995 52.1425753,38.3735316 52.7089844,39.081543 C53.2753935,39.7895543 54.0566356,40.1435547 55.0527344,40.1435547 C56.322272,40.1435547 57.6210871,39.7480508 58.9492188,38.9570312 L58.9492188,42.1650391 C57.6992125,42.9169959 56.2002041,43.2929688 54.4521484,43.2929688 L54.4521484,43.2929688 Z M53.8808594,29.3769531 C53.324216,29.3769531 52.8652362,29.6723603 52.5039062,30.2631836 C52.1425763,30.8540069 51.9326175,31.769525 51.8740234,33.0097656 L55.8291016,33.0097656 C55.8095702,31.8183534 55.628908,30.9150421 55.2871094,30.2998047 C54.9453108,29.6845672 54.4765655,29.3769531 53.8808594,29.3769531 L53.8808594,29.3769531 Z" id="table"></path>
            </g>
        </g>
    </g>
</svg>